# xmcd
#
# Track frame offsets:
#	150
#	12648
#	24087
#	34555
#	47036
#	55970
#	67990
#	78883
#	89079
#	100361
#	112505
#	122752
#	131293
#	142517
#	155180
#	166483
#	178586
#	188719
#	196503
#	205950
#	217247
#
# Disc length: 3065 seconds
#
# Revision: 0
# Processed by: cddbd v1.5PL3 Copyright (c) Steve Scherf et al.
# Submitted via: dBpowerAMP V4.0
#
DISCID=160bf715
DTITLE=Johnny Cash - Cash Sings Cash
DYEAR=2004
DGENRE=Country
TTITLE0=I Walk the Line
TTITLE1=Big River
TTITLE2=There You Go
TTITLE3=Give my Love to Rose
TTITLE4=Katy Too
TTITLE5=So Doggone Lonesome
TTITLE6=Train of Love
TTITLE7=Hey, Porter
TTITLE8=Don't Make Me Go
TTITLE9=You're the nearest thing to Heaven
TTITLE10=Straight A's in Love
TTITLE11=Country Boy
TTITLE12=Cry! Cry! Cry!
TTITLE13=Next in Line
TTITLE14=Mean Eyed Cat
TTITLE15=Home of the Blues
TTITLE16=Get Rhythm
TTITLE17=Come in Stranger
TTITLE18=Luther Played the Boogie
TTITLE19=Wide Open Road
TTITLE20=Folsom Prison Blues
EXTD=
EXTT0=
EXTT1=
EXTT2=
EXTT3=
EXTT4=
EXTT5=
EXTT6=
EXTT7=
EXTT8=
EXTT9=
EXTT10=
EXTT11=
EXTT12=
EXTT13=
EXTT14=
EXTT15=
EXTT16=
EXTT17=
EXTT18=
EXTT19=
EXTT20=
PLAYORDER=
